#N canvas 380 15 689 657 10;
#X obj 104 176 tgl 15 0 empty \$0-up_r empty 17 7 0 10 -258113 -1 -1
0 4;
#X obj 122 176 tgl 15 0 empty \$0-up_g empty 17 7 0 10 -4034 -1 -1
0 1;
#X obj 140 176 tgl 15 0 empty \$0-up_b up 20 7 0 10 -4160 -1 -1 0 2
;
#X obj 140 241 t b f;
#X obj 98 241 t b f;
#X obj 80 279 + 0;
#X obj 115 318 + 0;
#X obj 105 157 nbx 3 14 0 127 0 0 empty \$0-num cc_num 0 -8 0 10 -262144
-1 -1 0 256;
#X obj 104 130 nbx 3 14 1 16 0 0 empty \$0-chan chan 0 -8 0 10 -262144
-1 -1 1 256;
#X obj 147 130 tgl 15 1 empty empty led_midi_driven 17 7 0 10 -262144
-1 -1 0 1;
#X obj 147 151 tgl 15 1 empty empty toggle 17 7 0 10 -262144 -1 -1
0 2;
#X obj 350 196 +;
#X obj 361 172 t b f;
#X obj 190 175 tgl 15 0 empty \$0-down_r empty 17 7 0 10 -258113 -1
-1 0 4;
#X obj 208 175 tgl 15 0 empty \$0-down_g empty 17 7 0 10 -4034 -1 -1
0 1;
#X obj 226 175 tgl 15 0 empty \$0-down_b empty 17 7 0 10 -4160 -1 -1
0 2;
#X obj 250 241 t b f;
#X obj 208 241 t b f;
#X obj 190 279 + 0;
#X obj 225 318 + 0;
#X obj 115 356 << 3;
#X obj 176 402 +;
#X obj 176 373 t b f;
#X obj 97 502 pack 0 0 0 0;
#X obj 146 442 t b f;
#X obj 191 441 t b f;
#X obj 104 442 t b f;
#X obj -97 178 int;
#X obj -97 199 t f f;
#X msg -65 221 set \$1;
#X obj -11 189 int;
#X obj -11 210 t f f;
#X msg 21 232 set \$1;
#X obj 97 523 list-change;
#X obj -81 20 unpack f f f f;
#X obj 21 258 s \$0-num;
#X obj -65 244 s \$0-chan;
#X obj -81 116 s \$0-chan;
#X obj -50 93 s \$0-num;
#X obj -18 68 s \$0-flags;
#X obj 14 45 s \$0-color;
#X obj 97 545 list prepend \$1;
#X obj 97 566 outlet;
#X obj -81 -2 route \$1;
#X obj -81 -24 inlet;
#X obj 280 -68 r \$0-color;
#X obj 280 -21 & 1;
#X obj 363 1 s \$0-down_b;
#X obj 280 1 s \$0-down_g;
#X obj 363 -21 & 2;
#X obj 447 -22 & 4;
#X obj 447 0 s \$0-down_r;
#X obj 281 95 & 1;
#X obj 364 95 & 2;
#X obj 448 94 & 4;
#X obj 281 48 >> 3;
#X obj 281 24 r \$0-color;
#X obj 281 117 s \$0-up_g;
#X obj 364 117 s \$0-up_b;
#X obj 448 116 s \$0-up_r;
#X obj 51 446 - 1;
#X obj -81 85 + 1;
#X obj 147 53 r \$0-flags;
#X obj 147 79 & 1;
#X obj 176 79 & 2;
#X connect 0 0 5 0;
#X connect 1 0 4 0;
#X connect 2 0 3 0;
#X connect 3 0 6 0;
#X connect 3 1 6 1;
#X connect 4 0 5 0;
#X connect 4 1 5 1;
#X connect 5 0 6 0;
#X connect 6 0 20 0;
#X connect 7 0 30 0;
#X connect 8 0 27 0;
#X connect 9 0 12 0;
#X connect 10 0 11 0;
#X connect 11 0 25 0;
#X connect 12 0 11 0;
#X connect 12 1 11 1;
#X connect 13 0 18 0;
#X connect 14 0 17 0;
#X connect 15 0 16 0;
#X connect 16 0 19 0;
#X connect 16 1 19 1;
#X connect 17 0 18 0;
#X connect 17 1 18 1;
#X connect 18 0 19 0;
#X connect 19 0 22 0;
#X connect 20 0 21 0;
#X connect 21 0 24 0;
#X connect 22 0 21 0;
#X connect 22 1 21 1;
#X connect 23 0 33 0;
#X connect 24 0 23 0;
#X connect 24 1 23 3;
#X connect 25 0 23 0;
#X connect 25 1 23 2;
#X connect 26 0 23 0;
#X connect 26 1 23 1;
#X connect 27 0 28 0;
#X connect 28 0 60 0;
#X connect 28 1 29 0;
#X connect 29 0 36 0;
#X connect 30 0 31 0;
#X connect 31 0 26 0;
#X connect 31 1 32 0;
#X connect 32 0 35 0;
#X connect 33 0 41 0;
#X connect 34 0 61 0;
#X connect 34 1 38 0;
#X connect 34 2 39 0;
#X connect 34 3 40 0;
#X connect 41 0 42 0;
#X connect 43 0 34 0;
#X connect 44 0 43 0;
#X connect 45 0 46 0;
#X connect 45 0 49 0;
#X connect 45 0 50 0;
#X connect 46 0 48 0;
#X connect 49 0 47 0;
#X connect 50 0 51 0;
#X connect 52 0 57 0;
#X connect 53 0 58 0;
#X connect 54 0 59 0;
#X connect 55 0 52 0;
#X connect 55 0 53 0;
#X connect 55 0 54 0;
#X connect 56 0 55 0;
#X connect 60 0 23 0;
#X connect 61 0 37 0;
#X connect 62 0 63 0;
#X connect 62 0 64 0;
#X connect 63 0 9 0;
#X connect 64 0 10 0;
#X coords 0 -1 1 1 160 100 1 100 100;
