#N canvas 63 15 936 707 10;
#N canvas 140 177 756 402 ping 0;
#X obj 238 24 sysexin;
#X obj 238 48 x37v-sysex2list;
#X obj 238 117 list-compare;
#X obj 319 94 list-value \$0-sysex_header;
#X obj 238 71 t a b;
#X obj 238 183 spigot 0;
#X obj 238 139 t b f;
#X obj 291 162 == 1;
#X obj 30 90 x37v-list2sysex;
#X obj 30 69 list-value \$0-sysex_header;
#X obj 30 37 bng 15 250 50 0 empty empty empty 17 7 0 10 -262144 -1
-1;
#X obj 30 146 midiout;
#X obj 30 15 inlet;
#X obj 238 213 outlet;
#X connect 0 0 1 0;
#X connect 1 0 4 0;
#X connect 2 0 6 0;
#X connect 3 0 2 1;
#X connect 4 0 2 0;
#X connect 4 1 3 0;
#X connect 5 0 13 0;
#X connect 6 0 5 0;
#X connect 6 1 7 0;
#X connect 7 0 5 1;
#X connect 8 0 11 0;
#X connect 9 0 8 0;
#X connect 10 0 9 0;
#X connect 12 0 10 0;
#X restore 732 68 pd ping;
#X obj 732 48 bng 15 250 50 0 empty empty ping_device 17 7 0 10 -262144
-1 -1;
#X obj 732 89 bng 15 250 50 0 empty empty empty 17 7 0 10 -262144 -1
-1;
#X obj 503 38 cnv 15 150 20 empty \$0-version_label fw_version-1 20
12 0 14 -233017 -66577 0;
#N canvas 154 410 450 300 get 0;
#X obj 17 38 list-value \$0-sysex_header;
#X obj 17 81 x37v-list2sysex;
#X obj 17 102 midiout;
#X obj 17 17 inlet;
#X obj 17 59 list append 0;
#X connect 0 0 4 0;
#X connect 1 0 2 0;
#X connect 3 0 0 0;
#X connect 4 0 1 0;
#X restore 784 146 pd get version;
#N canvas 403 150 463 560 guts 0;
#X msg 10 50 label \$1;
#X obj 10 8 r \$0-version;
#X obj 10 29 makefilename fw_version-%d;
#X obj 10 71 s \$0-version_label;
#N canvas 108 15 323 382 sysex 0;
#X obj 7 11 sysexin;
#X obj 7 33 x37v-sysex2list;
#X obj 39 145 list length;
#X obj 7 55 t a a;
#X obj 71 116 list length;
#X obj 39 74 t a b;
#X obj 71 95 list-value \$0-sysex_header;
#X obj 39 172 >;
#X obj 7 196 spigot;
#X obj 7 303 list split;
#X obj 7 219 t a b;
#X obj 74 282 list length;
#X obj 74 261 list-value \$0-sysex_header;
#X obj 40 345 outlet;
#X connect 0 0 1 0;
#X connect 1 0 3 0;
#X connect 2 0 7 0;
#X connect 3 0 8 0;
#X connect 3 1 5 0;
#X connect 4 0 7 1;
#X connect 5 0 2 0;
#X connect 5 1 6 0;
#X connect 6 0 4 0;
#X connect 7 0 8 1;
#X connect 8 0 10 0;
#X connect 9 1 13 0;
#X connect 10 0 9 0;
#X connect 10 1 12 0;
#X connect 11 0 9 1;
#X connect 12 0 11 0;
#X restore -185 91 pd sysex match;
#X obj -185 113 s \$0-input;
#X obj -186 70 list-value \$0-sysex_header;
#X obj -186 26 loadbang;
#X text -184 8 our sysex header;
#X msg -186 49 125 98 117 122 122 114 1;
#X obj -185 169 r \$0-input;
#X obj -185 423 s \$0-version;
#X obj -155 229 t b a b;
#X text -86 232 don't output when we're setting data values;
#X msg -76 274 0;
#X obj -129 253 r \$0-button_set;
#X obj -129 296 spigot 1;
#X msg -108 274 1;
#X obj -154 394 s \$0-button_get;
#X obj -185 191 route 3 4;
#X obj -36 473 list prepend;
#X obj 45 450 list-value \$0-sysex_header;
#X obj -36 415 t a b;
#X obj -36 498 x37v-list2sysex;
#X obj -36 394 list prepend 2;
#X obj -36 525 midiout;
#X obj 24 191 s \$0-version_label;
#X msg 24 170 label fw_version;
#X obj 24 148 loadbang;
#X connect 0 0 3 0;
#X connect 1 0 2 0;
#X connect 2 0 0 0;
#X connect 4 0 5 0;
#X connect 7 0 9 0;
#X connect 9 0 6 0;
#X connect 10 0 19 0;
#X connect 12 0 17 0;
#X connect 12 1 18 0;
#X connect 12 2 14 0;
#X connect 14 0 16 1;
#X connect 15 0 16 0;
#X connect 16 0 24 0;
#X connect 17 0 16 1;
#X connect 19 0 11 0;
#X connect 19 1 12 0;
#X connect 20 0 23 0;
#X connect 21 0 20 1;
#X connect 22 0 20 0;
#X connect 22 1 21 0;
#X connect 23 0 25 0;
#X connect 24 0 22 0;
#X connect 27 0 26 0;
#X connect 28 0 27 0;
#X restore 678 12 pd guts;
#X obj 176 191 r \$0-button_get;
#X obj 176 346 s \$0-button_set;
#X obj 337 178 s \$0-button_set;
#X obj 337 32 r \$0-button_get;
#X obj 784 124 bng 15 250 50 0 empty empty empty 17 7 0 10 -262144
-1 -1;
#X obj 9 65 btn 0;
#X obj 173 65 btn 1;
#X obj 337 65 btn 2;
#X obj 501 65 btn 3;
#X obj 12 224 btn 4;
#X obj 176 224 btn 5;
#X obj 340 224 btn 6;
#X obj 504 224 btn 7;
#N canvas 390 244 303 293 get 0;
#X obj 14 78 until;
#X obj 14 123 f 0;
#X obj 47 123 + 1;
#X msg 32 101 0;
#X msg 14 29 16;
#X msg 14 150 1 \$1;
#X obj 95 174 list-value \$0-sysex_header;
#X obj 14 196 list prepend;
#X obj 14 52 t f b b;
#X obj 14 218 x37v-list2sysex;
#X obj 14 240 midiout;
#X obj 14 6 inlet;
#X connect 0 0 1 0;
#X connect 1 0 2 0;
#X connect 1 0 5 0;
#X connect 2 0 1 1;
#X connect 3 0 1 1;
#X connect 4 0 8 0;
#X connect 5 0 7 0;
#X connect 6 0 7 1;
#X connect 7 0 9 0;
#X connect 8 0 0 0;
#X connect 8 1 3 0;
#X connect 8 2 6 0;
#X connect 9 0 10 0;
#X connect 11 0 4 0;
#X restore 676 146 pd get buttons;
#X obj 676 123 bng 15 250 50 0 empty empty empty 17 7 0 10 -262144
-1 -1;
#X obj 755 207 ctlin;
#X obj 755 245 pack f f f;
#X msg 755 269 \$3 \$2 \$1;
#X obj 755 317 spigot 0;
#X obj 808 296 tgl 15 0 empty empty empty 17 7 0 10 -262144 -1 -1 0
1;
#X obj 755 340 print;
#X obj 181 507 r \$0-button_get;
#X obj 181 662 s \$0-button_set;
#X obj 342 494 s \$0-button_set;
#X obj 342 348 r \$0-button_get;
#X obj 14 381 btn 8;
#X obj 178 381 btn 9;
#X obj 342 381 btn 10;
#X obj 506 381 btn 11;
#X obj 17 540 btn 12;
#X obj 181 540 btn 13;
#X obj 345 540 btn 14;
#X obj 509 540 btn 15;
#X connect 0 0 2 0;
#X connect 1 0 0 0;
#X connect 6 0 15 0;
#X connect 6 0 16 0;
#X connect 6 0 17 0;
#X connect 6 0 18 0;
#X connect 9 0 11 0;
#X connect 9 0 12 0;
#X connect 9 0 13 0;
#X connect 9 0 14 0;
#X connect 10 0 4 0;
#X connect 11 0 8 0;
#X connect 12 0 8 0;
#X connect 13 0 8 0;
#X connect 14 0 8 0;
#X connect 15 0 7 0;
#X connect 16 0 7 0;
#X connect 17 0 7 0;
#X connect 18 0 7 0;
#X connect 20 0 19 0;
#X connect 21 0 22 0;
#X connect 21 1 22 1;
#X connect 21 2 22 2;
#X connect 22 0 23 0;
#X connect 23 0 24 0;
#X connect 24 0 26 0;
#X connect 25 0 24 1;
#X connect 27 0 35 0;
#X connect 27 0 36 0;
#X connect 27 0 37 0;
#X connect 27 0 38 0;
#X connect 30 0 31 0;
#X connect 30 0 32 0;
#X connect 30 0 33 0;
#X connect 30 0 34 0;
#X connect 31 0 29 0;
#X connect 32 0 29 0;
#X connect 33 0 29 0;
#X connect 34 0 29 0;
#X connect 35 0 28 0;
#X connect 36 0 28 0;
#X connect 37 0 28 0;
#X connect 38 0 28 0;
