#N canvas 62 15 937 627 10;
#X obj 100 132 bng 15 250 50 0 empty empty empty 17 7 0 10 -262144
-1 -1;
#X obj 353 62 ctlin;
#X obj 353 91 pack f f f;
#X obj 117 341 unpack f f f;
#X obj 117 382 ctlout;
#X obj 117 252 pack f f 1;
#X obj 117 193 random 8;
#X obj 117 164 t b b;
#X obj 117 85 metro 100;
#X obj 117 54 tgl 15 0 empty empty empty 17 7 0 10 -262144 -1 -1 0
1;
#X obj 180 38 hsl 128 15 1 127 0 0 empty empty empty -2 -8 0 10 -262144
-1 -1 0 1;
#X obj 594 144 until;
#X obj 594 81 t b b;
#X msg 642 113 0;
#X obj 594 176 f 0;
#X obj 132 315 r cc_out;
#X obj 627 176 + 1;
#X obj 594 224 s cc_out;
#X msg 594 199 0 \$1 1;
#X obj 594 58 bng 15 250 50 0 empty empty empty 17 7 0 10 -262144 -1
-1;
#X text 613 58 < - clear;
#X obj 354 261 s cc_out;
#X obj 354 147 route 127;
#X msg 354 205 2 \$1 \$2;
#X obj 503 317 f 0;
#X obj 503 344 select 0 1;
#X obj 503 425 s cc_out;
#X obj 503 290 metro 100;
#X obj 503 269 tgl 15 0 empty empty empty 17 7 0 10 -262144 -1 -1 1
1;
#X obj 566 264 hsl 128 15 1 127 0 0 empty empty empty -2 -8 0 10 -262144
-1 -1 11700 1;
#X obj 535 317 == 0;
#X msg 575 373 1 0 1;
#X msg 503 370 4 0 1;
#X obj 383 125 print;
#X obj 745 367 until;
#X obj 745 304 t b b;
#X msg 793 336 0;
#X obj 745 399 f 0;
#X obj 778 399 + 1;
#X obj 749 564 s cc_out;
#X obj 745 281 bng 15 250 50 0 empty empty empty 17 7 0 10 -262144
-1 -1;
#X obj 745 445 mod 2;
#X obj 745 422 t f f;
#X obj 745 473 pack f f;
#X obj 745 498 route 0 1;
#X msg 746 533 1 \$1 1;
#X msg 803 531 2 \$1 1;
#X obj 159 215 random 32;
#X msg 594 114 32;
#X msg 745 337 32;
#X msg 518 395 1 8 1;
#X msg 580 397 4 8 1;
#X connect 0 0 7 0;
#X connect 1 0 2 0;
#X connect 1 1 2 1;
#X connect 1 2 2 2;
#X connect 2 0 22 0;
#X connect 2 0 33 0;
#X connect 3 0 4 0;
#X connect 3 1 4 1;
#X connect 3 2 4 2;
#X connect 5 0 3 0;
#X connect 6 0 5 0;
#X connect 7 0 6 0;
#X connect 7 1 47 0;
#X connect 8 0 7 0;
#X connect 9 0 8 0;
#X connect 10 0 8 1;
#X connect 11 0 14 0;
#X connect 12 0 48 0;
#X connect 12 1 13 0;
#X connect 13 0 14 1;
#X connect 14 0 16 0;
#X connect 14 0 18 0;
#X connect 15 0 3 0;
#X connect 16 0 14 1;
#X connect 18 0 17 0;
#X connect 19 0 12 0;
#X connect 22 0 23 0;
#X connect 22 1 21 0;
#X connect 23 0 21 0;
#X connect 24 0 25 0;
#X connect 24 0 30 0;
#X connect 25 0 32 0;
#X connect 25 1 31 0;
#X connect 27 0 24 0;
#X connect 28 0 27 0;
#X connect 29 0 27 1;
#X connect 30 0 24 1;
#X connect 31 0 26 0;
#X connect 31 0 51 0;
#X connect 32 0 26 0;
#X connect 32 0 50 0;
#X connect 34 0 37 0;
#X connect 35 0 49 0;
#X connect 35 1 36 0;
#X connect 36 0 37 1;
#X connect 37 0 38 0;
#X connect 37 0 42 0;
#X connect 38 0 37 1;
#X connect 40 0 35 0;
#X connect 41 0 43 0;
#X connect 42 0 41 0;
#X connect 42 1 43 1;
#X connect 43 0 44 0;
#X connect 44 0 45 0;
#X connect 44 1 46 0;
#X connect 45 0 39 0;
#X connect 46 0 39 0;
#X connect 47 0 5 1;
#X connect 48 0 11 0;
#X connect 49 0 34 0;
#X connect 50 0 26 0;
#X connect 51 0 26 0;
