#N canvas 141 102 762 505 10;
#X obj 100 132 bng 15 250 50 0 empty empty empty 17 7 0 10 -262144
-1 -1;
#X obj 353 62 ctlin;
#X obj 353 91 pack f f f;
#X obj 117 341 unpack f f f;
#X obj 117 382 ctlout;
#X obj 117 252 pack f f 1;
#X obj 117 193 random 8;
#X obj 150 210 random 16;
#X obj 117 164 t b b;
#X obj 117 85 metro 100;
#X obj 117 54 tgl 15 0 empty empty empty 17 7 0 10 -262144 -1 -1 0
1;
#X obj 180 38 hsl 128 15 1 127 0 0 empty empty empty -2 -8 0 10 -262144
-1 -1 1400 1;
#X obj 594 144 until;
#X msg 594 114 16;
#X obj 594 81 t b b;
#X msg 642 113 0;
#X obj 594 176 f 0;
#X obj 132 315 r cc_out;
#X obj 627 176 + 1;
#X obj 594 224 s cc_out;
#X msg 594 199 0 \$1 1;
#X obj 594 58 bng 15 250 50 0 empty empty empty 17 7 0 10 -262144 -1
-1;
#X text 613 58 < - clear;
#X obj 354 261 s cc_out;
#X obj 354 147 route 127;
#X msg 354 205 2 \$1 \$2;
#X obj 503 317 f 0;
#X obj 503 344 select 0 1;
#X obj 503 425 s cc_out;
#X obj 503 290 metro 100;
#X obj 503 269 tgl 15 0 empty empty empty 17 7 0 10 -262144 -1 -1 0
1;
#X obj 566 264 hsl 128 15 1 127 0 0 empty empty empty -2 -8 0 10 -262144
-1 -1 12700 1;
#X obj 535 317 == 0;
#X msg 575 373 1 0 1;
#X msg 503 370 4 0 1;
#X msg 518 395 1 1 1;
#X msg 580 397 4 1 1;
#X connect 0 0 8 0;
#X connect 1 0 2 0;
#X connect 1 1 2 1;
#X connect 1 2 2 2;
#X connect 2 0 24 0;
#X connect 3 0 4 0;
#X connect 3 1 4 1;
#X connect 3 2 4 2;
#X connect 5 0 3 0;
#X connect 6 0 5 0;
#X connect 7 0 5 1;
#X connect 8 0 6 0;
#X connect 8 1 7 0;
#X connect 9 0 8 0;
#X connect 10 0 9 0;
#X connect 11 0 9 1;
#X connect 12 0 16 0;
#X connect 13 0 12 0;
#X connect 14 0 13 0;
#X connect 14 1 15 0;
#X connect 15 0 16 1;
#X connect 16 0 18 0;
#X connect 16 0 20 0;
#X connect 17 0 3 0;
#X connect 18 0 16 1;
#X connect 20 0 19 0;
#X connect 21 0 14 0;
#X connect 24 0 25 0;
#X connect 24 1 23 0;
#X connect 25 0 23 0;
#X connect 26 0 27 0;
#X connect 26 0 32 0;
#X connect 27 0 34 0;
#X connect 27 1 33 0;
#X connect 29 0 26 0;
#X connect 30 0 29 0;
#X connect 31 0 29 1;
#X connect 32 0 26 1;
#X connect 33 0 28 0;
#X connect 33 0 36 0;
#X connect 34 0 28 0;
#X connect 34 0 35 0;
#X connect 35 0 28 0;
#X connect 36 0 28 0;
